<svg width="76" height="76" viewBox="0 0 76 76" fill="none" xmlns="http://www.w3.org/2000/svg">
<path fill-rule="evenodd" clip-rule="evenodd" d="M46.3137 7.42148C34.0173 7.42148 24.049 17.3897 24.049 29.6862C24.049 41.9827 34.0172 51.9509 46.3137 51.9509C46.856 51.9509 47.394 51.9313 47.9264 51.8933C47.8841 51.6763 47.862 51.4529 47.862 51.2252C47.862 49.2715 49.4603 47.6732 51.4139 47.6732H52.18C52.18 43.7499 55.3604 40.5693 59.2839 40.5693C61.2781 40.5693 63.0803 41.391 64.3704 42.7144C67.0178 39.0515 68.5781 34.5512 68.5781 29.6863C68.5784 17.3898 58.6102 7.42148 46.3137 7.42148Z" fill="white"/>
<path fill-rule="evenodd" clip-rule="evenodd" d="M24.0491 29.6862C24.0491 17.3897 34.0173 7.42147 46.3138 7.42147C58.6103 7.42147 68.5785 17.3897 68.5785 29.6862C68.5785 34.551 67.0182 39.0515 64.3708 42.7141C64.7548 43.1081 65.0935 43.5464 65.3785 44.0208C65.7678 43.9135 66.1777 43.8559 66.601 43.8559C67.8751 43.8559 69.028 44.3752 69.8591 45.214C72.802 40.7606 74.5156 35.4238 74.5156 29.6863C74.5156 14.1108 61.8892 1.48437 46.3137 1.48437C38.3028 1.48437 31.072 4.82452 25.9379 10.1881C23.5917 12.6391 21.6834 15.5128 20.3388 18.6834C18.9049 22.0642 18.1117 25.7826 18.1117 29.6863C18.1117 35.8973 20.1195 41.6394 23.5214 46.2988C25.2486 48.6643 27.3351 50.7508 29.7005 52.4781C34.3602 55.8802 40.1024 57.8881 46.3137 57.8881C50.9574 57.8881 55.3388 56.7654 59.2018 54.7772C56.5982 54.7772 53.9946 54.7772 51.3908 54.7772C49.6817 54.7772 48.2423 53.5158 47.9264 51.8933C47.394 51.9314 46.8561 51.9509 46.3137 51.9509C34.0173 51.9509 24.0491 41.9827 24.0491 29.6862Z" fill="#FF8700"/>
<path fill-rule="evenodd" clip-rule="evenodd" d="M20.3388 18.6833C21.6836 15.5126 23.5918 12.639 25.9379 10.1879C25.165 8.74429 23.6426 7.76197 21.8906 7.76197C21.4672 7.76197 21.0573 7.81956 20.6681 7.92688C19.4262 5.85893 17.1616 4.47526 14.5739 4.47526C10.6504 4.47526 7.46993 7.65584 7.46993 11.5792H6.70388C4.75022 11.5792 3.15192 13.1775 3.15192 15.1311C3.15192 17.0618 4.74295 18.6831 6.68057 18.6831H20.3388V18.6833Z" fill="#0296E5"/>
<path fill-rule="evenodd" clip-rule="evenodd" d="M59.284 40.5692C55.3605 40.5692 52.1801 43.7498 52.1801 47.6731H51.4141C49.4604 47.6731 47.8621 49.2714 47.8621 51.225C47.8621 51.4527 47.8842 51.6763 47.9265 51.8931C48.2424 53.5155 49.6817 54.777 51.3909 54.777H59.202H71.1762C73.0131 54.777 74.5159 53.2741 74.5159 51.4373C74.5159 49.6003 73.0132 48.0976 71.1762 48.0976C71.0925 46.9758 70.6054 45.9663 69.8595 45.2137C69.0281 44.3751 67.8754 43.8557 66.6013 43.8557C66.1778 43.8557 65.768 43.9133 65.3788 44.0206C65.0939 43.5463 64.7552 43.1079 64.3711 42.714C63.0805 41.3909 61.2784 40.5692 59.284 40.5692Z" fill="#0296E5"/>
<path fill-rule="evenodd" clip-rule="evenodd" d="M23.8814 58.5506L17.449 52.1182L2.93876 66.0237C1.00336 67.9591 1.00336 71.1258 2.93876 73.0612C4.87416 74.9966 8.04094 74.9966 9.97634 73.0612L23.8814 58.5506Z" fill="#FF8700"/>
<path fill-rule="evenodd" clip-rule="evenodd" d="M17.449 52.1182L23.8814 58.5506L29.7006 52.478C27.3351 50.7507 25.2487 48.6642 23.5216 46.2986L17.449 52.1182Z" fill="#FFC144"/>
<path d="M38.8927 31.1706C39.7126 31.1706 40.3771 30.506 40.3771 29.6862C40.3771 28.8664 39.7126 28.2018 38.8927 28.2018H38.8917C38.0719 28.2018 37.4078 28.8664 37.4078 29.6862C37.4078 30.506 38.0729 31.1706 38.8927 31.1706Z" fill="black"/>
<path d="M46.3143 31.1706C47.1341 31.1706 47.7987 30.506 47.7987 29.6862C47.7987 28.8664 47.1341 28.2018 46.3143 28.2018H46.3133C45.4935 28.2018 44.8294 28.8664 44.8294 29.6862C44.8294 30.506 45.4945 31.1706 46.3143 31.1706Z" fill="black"/>
<path d="M53.7359 31.1706C54.5557 31.1706 55.2203 30.506 55.2203 29.6862C55.2203 28.8664 54.5557 28.2018 53.7359 28.2018H53.7349C52.915 28.2018 52.2509 28.8664 52.2509 29.6862C52.2509 30.506 52.9161 31.1706 53.7359 31.1706Z" fill="black"/>
<path d="M72.4413 46.7817C72.2706 46.185 72.0102 45.6262 71.6764 45.1202C74.508 40.4771 75.9999 35.1627 75.9999 29.6863C75.9999 13.3173 62.6827 0 46.3136 0C38.5088 0 31.3978 3.02756 26.0933 7.97003C24.9757 6.90162 23.4711 6.27791 21.8906 6.27791C21.7092 6.27791 21.5283 6.28592 21.3484 6.30195C19.7331 4.23801 17.2221 2.99119 14.5738 2.99119C10.3319 2.99119 6.79853 6.08198 6.10788 10.1301C3.61052 10.4258 1.6674 12.556 1.6674 15.1314C1.6674 17.9084 3.91614 20.1677 6.68038 20.1677H18.1923C17.1777 23.1569 16.6274 26.3585 16.6274 29.6863C16.6274 35.7491 18.4543 41.3932 21.5865 46.0972L1.91172 64.952C1.90415 64.9592 1.89658 64.9666 1.88916 64.9741C-0.62972 67.4931 -0.62972 71.5917 1.88916 74.1108C3.1486 75.3702 4.80302 76 6.45743 76C8.11185 76 9.76626 75.3702 11.0257 74.1108C11.0331 74.1033 11.0405 74.0958 11.0478 74.0882L29.902 54.4129C34.6063 57.5452 40.2505 59.3724 46.3136 59.3724C50.9708 59.3724 55.4244 58.326 59.5564 56.2614H71.1759C73.8358 56.2614 75.9999 54.0973 75.9999 51.4374C75.9999 49.2151 74.4895 47.3389 72.4413 46.7817ZM6.68053 17.1989C5.57234 17.1989 4.63618 16.2521 4.63618 15.1312C4.63618 13.9911 5.56373 13.0636 6.70383 13.0636H7.46988C8.28967 13.0636 8.9542 12.3991 8.9542 11.5793C8.9542 8.48063 11.4752 5.95967 14.5738 5.95967C16.5658 5.95967 18.3683 6.98073 19.3956 8.69125C19.7388 9.26257 20.4205 9.53523 21.0628 9.35786C21.331 9.28394 21.6095 9.24639 21.8906 9.24639C22.6917 9.24639 23.4548 9.56017 24.0247 10.0984C22.1584 12.2196 20.5893 14.6083 19.3831 17.199H6.68053V17.1989ZM8.9165 72.0219C7.55419 73.3732 5.34642 73.3698 3.98843 72.0117C2.63028 70.6537 2.62686 68.4459 3.97818 67.0834L17.427 54.1951L21.8045 58.5727L8.9165 72.0219ZM23.8586 56.4287L19.5706 52.1405L23.3681 48.5013C24.6064 50.0089 25.9903 51.3926 27.4977 52.6311L23.8586 56.4287ZM19.5961 29.6861C19.5961 14.954 31.5817 2.96848 46.3138 2.96848C61.0459 2.96848 73.0314 14.954 73.0314 29.6861C73.0314 34.4218 71.7926 39.022 69.4361 43.0804C68.5861 42.6277 67.6195 42.3715 66.6009 42.3715C66.5313 42.3715 66.4619 42.3727 66.3926 42.3751C68.7976 38.5809 70.0628 34.2204 70.0628 29.6863C70.0628 16.5911 59.409 5.93726 46.3138 5.93726C42.4653 5.93726 38.6409 6.88098 35.2542 8.66647C34.5291 9.04882 34.2511 9.94654 34.6333 10.6718C35.0155 11.3969 35.9133 11.6747 36.6386 11.2927C39.6001 9.73102 42.9457 8.90574 46.3136 8.90574C57.7719 8.90574 67.094 18.2278 67.094 29.6861C67.094 33.5523 66.0433 37.2737 64.0432 40.532C62.6507 39.606 60.9962 39.085 59.2842 39.085C55.0423 39.085 51.5087 42.1759 50.8182 46.2239C48.5708 46.4899 46.7724 48.2415 46.4349 50.4665C46.3962 50.4665 46.3558 50.4665 46.3138 50.4665C34.8555 50.4665 25.5334 41.1444 25.5334 29.6861C25.5334 26.3178 26.3585 22.9724 27.9196 20.0117C28.3019 19.2864 28.0241 18.3887 27.2988 18.0064C26.5737 17.624 25.6759 17.902 25.2935 18.6271C23.5083 22.0131 22.5646 25.8373 22.5646 29.6861C22.5646 42.7813 33.2183 53.4352 46.3136 53.4352C46.5327 53.4352 46.7141 53.4346 46.8851 53.4316C47.5349 54.7654 48.7546 55.77 50.2235 56.1234C48.9409 56.31 47.6365 56.4038 46.3138 56.4038C31.5815 56.4038 19.5961 44.4182 19.5961 29.6861ZM71.176 53.2928H51.3907C50.2825 53.2928 49.3464 52.346 49.3464 51.2252C49.3464 50.0851 50.2739 49.1575 51.414 49.1575H52.1801C52.9999 49.1575 53.6644 48.493 53.6644 47.6732C53.6644 44.5745 56.1854 42.0536 59.284 42.0536C61.2761 42.0536 63.0785 43.0746 64.1058 44.785C64.4488 45.3565 65.1306 45.6292 65.773 45.4516C66.0414 45.3776 66.3198 45.3402 66.6008 45.3402C68.2163 45.3402 69.5757 46.5999 69.6957 48.2081C69.7535 48.983 70.399 49.582 71.1759 49.582C72.199 49.582 73.0313 50.4143 73.0313 51.4374C73.0313 52.4606 72.199 53.2928 71.176 53.2928Z" fill="black"/>
<path d="M30.5702 15.4271C31.39 15.4271 32.0546 14.7625 32.0546 13.9427C32.0546 13.1229 31.39 12.4583 30.5702 12.4583H30.5692C29.7493 12.4583 29.0854 13.1229 29.0854 13.9427C29.0854 14.7625 29.7504 15.4271 30.5702 15.4271Z" fill="black"/>
</svg>
