<svg width="64" height="76" viewBox="0 0 64 76" fill="none" xmlns="http://www.w3.org/2000/svg">
<path d="M31.7783 27.8624C30.3303 27.8624 28.8929 28.1103 27.5286 28.5954L5.27808 36.5065L31.7783 46.5788L32.146 46.2928V27.8702C32.0234 27.8667 31.9009 27.8624 31.7783 27.8624Z" fill="#05858D"/>
<path d="M17.8109 32.0505L5.27808 36.5065L17.6692 41.2161C14.8805 38.8449 14.9429 34.3381 17.8109 32.0505Z" fill="#05858D"/>
<path d="M36.0281 28.5954C34.6637 28.1103 33.2264 27.8624 31.7783 27.8624V46.4304L58.2786 36.5065L36.0281 28.5954Z" fill="#0296E5"/>
<path d="M31.7783 45.985L27.2972 51.281C26.9258 51.7938 26.2602 51.9999 25.6639 51.7865L5.27808 44.495V64.1289C5.27808 65.2929 6.00945 66.3312 7.10539 66.7232L28.1877 74.2639C29.3399 74.6759 30.5545 74.8867 31.7781 74.8867C31.9008 74.8867 32.0234 74.883 32.1458 74.8788V46.4317L31.7783 45.985Z" fill="#0296E5"/>
<path d="M10.5835 65.6452V46.3925L5.2782 44.4948V64.1288C5.2782 65.2927 6.00957 66.331 7.10551 66.7231L11.877 68.4297C11.0736 67.7497 10.5835 66.7403 10.5835 65.6452Z" fill="#05858D"/>
<path d="M37.8928 51.935C37.2965 52.1483 36.631 51.9423 36.2595 51.4294L31.7783 45.9852V74.8867C33.0021 74.8867 34.2166 74.6761 35.369 74.2638L56.4513 66.7232C57.5472 66.3312 58.2786 65.2928 58.2786 64.1289V44.6434L37.8928 51.935Z" fill="#0296E5"/>
<path d="M44.2761 4.42229C43.0442 3.79216 42.0379 2.7841 41.4106 1.55056C41.2743 1.28262 41.0007 1.11236 40.7001 1.11236C40.3994 1.11236 40.126 1.28262 39.9897 1.55056C39.3624 2.7841 38.3561 3.79201 37.1242 4.42229C36.8571 4.55885 36.6878 4.83183 36.6878 5.13183V5.15143C36.6878 5.44816 36.852 5.72203 37.1163 5.85696C38.3442 6.48324 39.348 7.48461 39.9772 8.71073C40.1123 8.97407 40.3857 9.13735 40.6817 9.13735H40.7188C41.0148 9.13735 41.2883 8.97407 41.4233 8.71073C42.0526 7.48461 43.0563 6.48324 44.2842 5.85696C44.5486 5.72218 44.7128 5.44831 44.7128 5.15143V5.13183C44.7125 4.83198 44.5431 4.559 44.2761 4.42229Z" fill="#FFE02F"/>
<path d="M26.31 7.71346C25.3881 7.24188 24.6351 6.48752 24.1656 5.56438C24.0636 5.36384 23.8589 5.23649 23.6339 5.23649C23.4088 5.23649 23.2041 5.36384 23.1022 5.56438C22.6327 6.48752 21.8796 7.24188 20.9577 7.71346C20.7579 7.81574 20.6311 8.01999 20.6311 8.24443V8.25912C20.6311 8.48118 20.754 8.68618 20.9519 8.78711C21.8709 9.25573 22.6221 10.0052 23.093 10.9228C23.194 11.12 23.3987 11.2421 23.6202 11.2421H23.648C23.8694 11.2421 24.0741 11.12 24.1752 10.9228C24.6461 10.0052 25.3973 9.25573 26.3163 8.78711C26.5141 8.68618 26.6371 8.48118 26.6371 8.25912V8.24443C26.6366 8.01999 26.5098 7.81574 26.31 7.71346Z" fill="#FFEA7E"/>
<path d="M40.1221 5.85696C39.8577 5.72218 39.6936 5.44831 39.6936 5.15143V5.13183C39.6936 4.83183 39.8629 4.55885 40.13 4.42229C40.9307 4.01274 41.6352 3.44273 42.2031 2.75574C41.8972 2.38568 41.6303 1.98237 41.4106 1.55056C41.2743 1.28262 41.0007 1.11236 40.7001 1.11236C40.3995 1.11236 40.126 1.28262 39.9897 1.55056C39.3624 2.7841 38.3561 3.79201 37.1242 4.42229C36.8571 4.55885 36.6878 4.83183 36.6878 5.13183V5.15143C36.6878 5.44816 36.852 5.72203 37.1163 5.85696C38.3442 6.48324 39.348 7.48461 39.9772 8.71073C40.1123 8.97407 40.3857 9.13735 40.6817 9.13735H40.7188C41.0148 9.13735 41.2883 8.97407 41.4233 8.71073C41.6405 8.28768 41.9031 7.89209 42.2032 7.5287C41.6334 6.83905 40.9262 6.26711 40.1221 5.85696Z" fill="#FBC700"/>
<path d="M23.5494 8.78711C23.3515 8.68618 23.2288 8.48118 23.2288 8.25912V8.24443C23.2288 8.01999 23.3555 7.81559 23.5553 7.71346C24.0762 7.44702 24.5404 7.0878 24.9328 6.66149C24.6306 6.33314 24.37 5.96606 24.1657 5.56438C24.0637 5.36384 23.859 5.23649 23.634 5.23649C23.409 5.23649 23.2043 5.36384 23.1023 5.56438C22.6328 6.48752 21.8798 7.24188 20.9578 7.71346C20.758 7.81574 20.6312 8.01999 20.6312 8.24443V8.25912C20.6312 8.48118 20.7542 8.68618 20.9519 8.78711C21.8709 9.25573 22.6221 10.0052 23.0929 10.9228C23.194 11.12 23.3987 11.2421 23.6202 11.2421H23.648C23.8694 11.2421 24.0741 11.12 24.1752 10.9228C24.378 10.5278 24.6354 10.1664 24.933 9.84265C24.5389 9.41441 24.0726 9.054 23.5494 8.78711Z" fill="#FFE02F"/>
<path d="M62.2728 42.0212L58.2783 36.5065L31.7781 45.985L36.2592 52.1714C36.6308 52.6843 37.2962 52.8903 37.8925 52.677L61.5989 44.1978C62.493 43.8782 62.8298 42.79 62.2728 42.0212Z" fill="#0296E5"/>
<path d="M1.28371 42.0212L5.27824 36.5065L31.7784 45.985L27.2973 52.1714C26.9258 52.6843 26.2603 52.8903 25.664 52.677L1.95748 44.1978C1.06357 43.8782 0.726759 42.79 1.28371 42.0212Z" fill="#0296E5"/>
<path d="M5.57242 43.5974L9.59115 38.0493L5.27806 36.5065L1.28367 42.0212C0.726726 42.79 1.06369 43.8782 1.95745 44.198L5.66519 45.5241C5.20963 45.0053 5.12962 44.2088 5.57242 43.5974Z" fill="#05858D"/>
<path d="M4.4786 35.8535L0.484215 41.3681C-0.508406 42.7384 0.0904029 44.6759 1.6848 45.2461L4.26707 46.1697V64.1288C4.26707 65.7587 5.29814 67.2226 6.83287 67.7714L27.915 75.312C30.436 76.2139 33.2385 76.2446 35.8459 75.312L56.9281 67.7714C58.4629 67.2226 59.4939 65.7587 59.4939 64.1288V58.4463C59.4939 57.8313 58.9956 57.333 58.3806 57.333C57.7656 57.333 57.2673 57.8313 57.2673 58.4463V64.1288C57.2673 64.8205 56.8297 65.4419 56.1784 65.6749L35.0959 73.2156C34.4128 73.4599 33.7092 73.6248 32.9937 73.7085V49.4198L35.4599 52.8244C36.1129 53.7265 37.3114 54.1043 38.37 53.7253C39.5498 53.3033 56.7453 47.153 57.2675 46.9661V53.2508C57.2675 53.8657 57.7658 54.3641 58.3808 54.3641C58.9958 54.3641 59.4941 53.8657 59.4941 53.2508V46.1697L62.0764 45.2461C63.6696 44.6762 64.2702 42.7389 63.2766 41.3679L63.2768 41.3681L59.2824 35.8535C59.1685 35.696 58.9689 35.5341 58.7537 35.4576L49.1034 32.0266C48.5239 31.8201 47.8874 32.1231 47.6815 32.7026C47.4754 33.282 47.7781 33.9185 48.3575 34.1245L55.0661 36.5098L32.9936 44.4045V29.029C33.935 29.1197 34.8607 29.3256 35.7571 29.6444L43.4346 32.3742C44.014 32.5806 44.6506 32.2778 44.8565 31.6982C45.0625 31.1189 44.7599 30.4824 44.1805 30.2763L36.503 27.5465C33.5878 26.5098 30.3239 26.4561 27.2575 27.5465L5.0072 35.4576C4.79493 35.5332 4.59795 35.6888 4.4786 35.8535ZM2.28732 42.6744L5.79171 37.8361L30.1082 46.5335C29.283 47.6727 30.0025 46.6796 26.4975 51.5185C26.4169 51.6296 26.2698 51.6748 26.141 51.6289C25.7268 51.4808 2.86758 43.3045 2.43458 43.1497C2.23908 43.0796 2.16545 42.8426 2.28732 42.6744ZM7.58249 65.6749C6.93114 65.442 6.49353 64.8205 6.49353 64.1288V46.9661L25.3912 53.7253C26.4595 54.1076 27.6493 53.7172 28.296 52.831C28.2977 52.8287 28.2995 52.8268 28.3011 52.8246C28.3011 52.8244 28.3011 52.8244 28.3011 52.8244L30.7671 49.4198V73.7084C30.0516 73.6247 29.3479 73.4597 28.6648 73.2156L7.58249 65.6749ZM61.4735 42.6744C61.5953 42.8424 61.5216 43.0796 61.3264 43.1497C61.1036 43.2294 37.8541 51.545 37.62 51.6288C37.4912 51.6751 37.3439 51.6298 37.2633 51.5185L33.6525 46.5335L57.9692 37.8361L61.4735 42.6744ZM28.0036 29.6444C28.9 29.3257 29.8256 29.1198 30.767 29.029V44.4045C29.8122 44.0629 9.55468 36.8174 8.69461 36.5096L28.0036 29.6444Z" fill="#252836"/>
<path d="M32.9936 23.2002V9.28638C32.9936 8.6714 32.4953 8.17308 31.8803 8.17308C31.2653 8.17308 30.767 8.6714 30.767 9.28638V23.2C30.767 23.815 31.2653 24.3133 31.8803 24.3133C32.4953 24.3133 32.9936 23.815 32.9936 23.2002Z" fill="#FF8700"/>
<path d="M46.622 11.4147C46.304 11.5538 38.8208 14.9262 37.5836 24.2024C37.4948 24.8685 38.0123 25.463 38.6886 25.463C39.2379 25.463 39.7161 25.0563 39.7907 24.4966C40.2371 21.1495 41.6621 18.2802 44.0262 15.9687C45.8027 14.2315 47.4788 13.4706 47.5163 13.4539C48.078 13.2067 48.3341 12.5513 48.0881 11.9887C47.8419 11.4254 47.1859 11.1686 46.622 11.4147Z" fill="#FF8700"/>
<path d="M44.3595 26.5806C44.054 27.1142 44.239 27.7944 44.7726 28.0997C45.3055 28.4049 45.9861 28.2207 46.2918 27.6866C48.8776 23.1693 52.7186 21.4058 55.4857 20.7221C56.0826 20.5745 56.4469 19.971 56.2993 19.3741C56.1518 18.7772 55.5481 18.4127 54.9513 18.5605C52.3407 19.2059 47.4934 21.1057 44.3595 26.5806Z" fill="#FF8700"/>
<path d="M15.6726 11.9887C15.4264 12.5521 15.6833 13.2085 16.2466 13.4549C16.313 13.4838 22.8969 16.4504 23.97 24.4968C24.0515 25.1082 24.6135 25.5344 25.2208 25.4532C25.8303 25.3719 26.2584 24.8119 26.1772 24.2024C24.9399 14.9262 17.4566 11.5537 17.1386 11.4147C16.5753 11.1686 15.9192 11.4256 15.6726 11.9887Z" fill="#FF8700"/>
<path d="M7.46133 19.3741C7.31393 19.971 7.6782 20.5745 8.27493 20.7221C11.042 21.406 14.8832 23.1694 17.4689 27.6866C17.7745 28.2207 18.4551 28.4051 18.988 28.0997C19.5217 27.7942 19.7066 27.1141 19.4011 26.5806C16.2674 21.1057 11.4198 19.2058 8.80932 18.5605C8.21199 18.4128 7.60888 18.7775 7.46133 19.3741Z" fill="#FF8700"/>
<path d="M52.2575 11.3215C51.6425 11.3215 51.1442 11.8198 51.1442 12.4348C51.1442 13.0497 51.6425 13.548 52.2575 13.548H53.0328V14.3233C53.0328 14.9383 53.5311 15.4366 54.1461 15.4366C54.761 15.4366 55.2593 14.9383 55.2593 14.3233V13.548H56.0346C56.6496 13.548 57.1479 13.0497 57.1479 12.4348C57.1479 11.8198 56.6496 11.3215 56.0346 11.3215H55.2593V10.5463C55.2593 9.93135 54.761 9.43305 54.1461 9.43305C53.5311 9.43305 53.0328 9.93135 53.0328 10.5463V11.3215H52.2575Z" fill="#FF8700"/>
<path d="M7.42886 26.749H6.65357C6.03859 26.749 5.54029 27.2474 5.54029 27.8623C5.54029 28.4773 6.03859 28.9756 6.65357 28.9756H7.42886V29.7509C7.42886 30.3659 7.92717 30.8642 8.54214 30.8642C9.15712 30.8642 9.65542 30.3659 9.65542 29.7509V28.9756H10.4307C11.0457 28.9756 11.544 28.4773 11.544 27.8623C11.544 27.2474 11.0457 26.749 10.4307 26.749H9.65542V25.9738C9.65542 25.3588 9.15712 24.8605 8.54214 24.8605C7.92717 24.8605 7.42886 25.3588 7.42886 25.9738V26.749Z" fill="#FF8700"/>
<path d="M44.8853 3.4313C43.8679 2.91072 43.0225 2.06357 42.505 1.04586C41.7952 -0.348743 39.8092 -0.348594 39.0994 1.04615C38.582 2.06357 37.7365 2.91086 36.7193 3.43115C35.3254 4.14396 35.3348 6.14613 36.7126 6.8487C37.7255 7.36527 38.5696 8.20707 39.0888 9.21914C39.7954 10.5958 41.8091 10.5961 42.5159 9.21899C43.0351 8.20722 43.8791 7.36542 44.8923 6.84855C46.2695 6.14613 46.2794 4.14455 44.8853 3.4313ZM40.8021 7.72494C40.1629 6.67517 39.2689 5.78111 38.2191 5.14178C39.2693 4.50259 40.1631 3.60943 40.8023 2.5604C41.4416 3.60943 42.3352 4.50259 43.3851 5.14178C42.3355 5.78111 41.4415 6.67502 40.8021 7.72494Z" fill="#252836"/>
<path d="M22.2044 11.4314C22.8369 12.6634 24.6351 12.6653 25.2677 11.4314C25.6296 10.726 26.2179 10.1392 26.924 9.77906C28.1485 9.15472 28.1754 7.36542 26.9197 6.72252C26.9196 6.72237 26.9194 6.72237 26.9193 6.72223C26.2102 6.35958 25.621 5.76924 25.2602 5.05969C24.6256 3.81205 22.847 3.81175 22.2119 5.05984C21.8512 5.76909 21.2621 6.35959 20.5521 6.72267C19.315 7.35636 19.3056 9.14552 20.5482 9.77906C21.2542 10.139 21.8425 10.726 22.2044 11.4314ZM23.736 6.82791C24.1279 7.377 24.6115 7.86047 25.161 8.25205C24.6118 8.64379 24.1279 9.12756 23.736 9.67708C23.3442 9.12785 22.8605 8.64379 22.3111 8.25205C22.8606 7.86032 23.3444 7.377 23.736 6.82791Z" fill="#252836"/>
</svg>
